<svg width="105" height="20" viewBox="0 0 105 20" fill="none" xmlns="http://www.w3.org/2000/svg">
<path d="M60.3354 18.8252L68.3782 0.62405C68.5053 0.347856 68.3561 0.110329 68.0468 0.110329H62.4124C62.2474 0.119698 62.0879 0.172705 61.95 0.263932C61.8122 0.35516 61.7011 0.481338 61.628 0.629574L53.6847 18.8252C53.5687 19.107 53.7178 19.339 54.0216 19.339H59.5511C59.8604 19.339 60.2139 19.107 60.3354 18.8252ZM89.1756 13.9256L101.66 0.115853H87.06L83.7567 5.43535H89.485L76.7966 19.3445H92.2469L98.0028 13.9256H89.1756ZM35.7487 0.110329H26.0819C25.7953 0.126936 25.5182 0.218951 25.2786 0.377061C25.039 0.53517 24.8454 0.753765 24.7175 1.01072L17.1111 18.4441C16.8901 18.9412 17.1608 19.3445 17.7021 19.3445H22.4913C23.0327 19.3445 23.6514 18.9412 23.8613 18.4496L26.0321 13.5057H28.2804C28.9819 13.4615 29.2802 13.7212 28.8935 14.5332L27.2253 18.4441C27.0154 18.9412 27.2805 19.3445 27.8219 19.3445H32.6111C32.8988 19.3294 33.1773 19.238 33.418 19.0798C33.6587 18.9216 33.853 18.7022 33.981 18.4441L36.1574 13.4118C36.8424 11.7768 35.8536 10.5118 34.4174 10.4455C35.6879 9.98703 36.859 8.72206 37.3837 7.57309L38.5106 4.92163C39.8695 1.8393 38.9028 0.071662 35.7487 0.115853M32.9315 5.61211L31.7383 8.23596C31.4621 8.86568 31.0644 8.91539 30.6667 8.89882H27.9766L29.7773 4.81115H32.357C32.9867 4.84982 33.1469 5.0763 32.9315 5.61211ZM54.563 0.104805H44.3217C44.1166 0.115494 43.918 0.180448 43.7462 0.293027C43.5745 0.405607 43.4356 0.561776 43.344 0.745575L35.5056 18.6982C35.3565 19.0517 35.5387 19.3334 35.9254 19.3334H46.8903C50.3648 19.2837 52.359 18.5159 53.9443 14.837L55.0712 12.3844C55.955 10.2853 55.0878 9.37388 53.4306 9.10873C54.8116 8.68339 55.8501 7.38528 56.2975 6.24184L57.2144 4.29743C58.3413 1.70121 57.4023 0.071662 54.5575 0.104805M49.5363 12.1469L48.8402 13.5444C48.4922 14.5166 47.8846 14.7818 47.0284 14.7928H43.8246L45.3602 11.1747H48.5641C49.47 11.2409 49.8235 11.4619 49.5363 12.1469ZM51.3757 5.70602L50.8951 6.8108L50.8233 6.95442C50.7435 7.18487 50.5897 7.38245 50.3859 7.51634C50.1821 7.65023 49.9396 7.71292 49.6964 7.69462H46.9179L48.1884 4.76696H51.0222C51.5304 4.8001 51.6132 5.13154 51.3757 5.70602ZM70.1514 0.110329L67.7706 5.43535H71.1678C71.3998 5.43535 71.5102 5.60107 71.4163 5.8165L65.4782 18.9633C65.3787 19.1732 65.4947 19.3445 65.7267 19.3445H71.7754C72.0074 19.3445 72.2725 19.1732 72.3664 18.9578L78.0671 5.8165C78.1217 5.70596 78.2047 5.61191 78.3076 5.54397C78.4104 5.47604 78.5295 5.43664 78.6526 5.42983H82.1382L85.4194 0.110329H70.1514ZM19.9669 6.66165L20.7182 5.02106C22.2317 1.56311 21.2319 0.0771859 18.2601 0.115853H11.1066C8.1624 0.0771859 5.7098 1.73435 4.35092 4.81667L2.14137 11.0587H0.0533447L4.04711 16.45L10.6481 11.0587H8.96889L10.9078 6.5567C11.2226 5.8165 11.764 5.46297 12.344 5.43535H13.4708C13.736 5.4464 13.9183 5.52926 14.0232 5.64526L17.5254 2.70103L19.9669 6.66165Z" fill="white"/>
<path d="M3.8978 18.0358L0.959101 14.3127L0.804432 14.6441C-0.559966 17.7485 -0.333486 19.2952 2.61074 19.3394H9.67026C12.5924 19.2952 15.1499 17.7485 16.5199 14.6441L18.6189 9.8328H20.4971L17.2932 4.43597L10.7474 9.8328H12.5427L11.2169 12.8986C10.8966 13.5504 10.4105 13.9039 9.89121 13.926H8.95215L3.8978 18.0358Z" fill="white"/>
<path d="M103.985 7.35165e-05C104.245 7.35165e-05 104.466 0.0940081 104.648 0.276352C104.831 0.458695 104.924 0.679718 104.924 0.939419C104.924 1.1936 104.831 1.41462 104.648 1.60249C104.466 1.79036 104.245 1.87877 103.985 1.87877C103.862 1.88067 103.739 1.85712 103.625 1.80959C103.511 1.76206 103.408 1.69156 103.322 1.60249C103.14 1.41462 103.046 1.1936 103.046 0.939419C103.046 0.685243 103.14 0.45317 103.322 0.276352C103.408 0.187539 103.511 0.117218 103.625 0.0697071C103.739 0.0221965 103.862 -0.00149986 103.985 7.35165e-05ZM103.985 1.70195C104.087 1.70424 104.187 1.68582 104.281 1.64782C104.375 1.60981 104.461 1.55303 104.532 1.48092C104.605 1.40976 104.661 1.32448 104.699 1.23037C104.738 1.13627 104.756 1.03535 104.753 0.933894C104.755 0.833355 104.736 0.733492 104.698 0.640393C104.66 0.547294 104.604 0.46291 104.532 0.392389C104.461 0.320022 104.376 0.26306 104.282 0.225038C104.187 0.187016 104.087 0.168747 103.985 0.171366C103.885 0.16918 103.785 0.187668 103.691 0.225687C103.598 0.263706 103.514 0.320444 103.444 0.392389C103.294 0.541579 103.223 0.723922 103.223 0.933894C103.223 1.14387 103.294 1.33173 103.444 1.48092C103.593 1.63011 103.775 1.70195 103.985 1.70195ZM104.466 1.43672H104.245L103.969 1.03888H103.853V1.43672H103.654V0.425542H103.969C104.079 0.425542 104.167 0.45317 104.234 0.5029C104.3 0.558155 104.339 0.629988 104.339 0.723922C104.339 0.845485 104.272 0.939419 104.145 0.989149L104.466 1.43672ZM103.858 0.873113H103.963C104.09 0.873113 104.151 0.823383 104.151 0.729448C104.151 0.635513 104.096 0.591309 103.969 0.591309H103.858V0.873113Z" fill="white"/>
</svg>
