<svg width="198" height="198" viewBox="0 0 198 198" fill="none" xmlns="http://www.w3.org/2000/svg">
<path d="M83.1293 77.0034L20.1096 83.4075C20.1096 83.4075 20.4499 87.9244 21.7493 88.9608C22.9868 89.9508 60.8543 89.4248 98.6599 89.5795C136.481 89.7342 173.977 90.4458 174.844 90.0745C176.576 89.332 176.576 83.1755 176.576 83.1755L83.1293 77.0034ZM102.836 41.8275L14.9585 39.6C14.9585 39.6 16.8766 43.8539 19.398 45.2616C23.0332 47.288 45.2154 51.4491 99.5726 51.6502C153.93 51.8512 173.606 48.8658 178.355 46.9322C182.392 45.277 186.816 35.9648 186.816 35.9648L102.836 41.8275Z" fill="#8A1E0C"/>
<path d="M46.5298 56.198V46.7156L60.7456 47.5819V56.0742L46.5298 56.198ZM140.425 47.8913V57.188L155.569 56.5847V47.0869L140.425 47.8913Z" fill="#8A1E0C"/>
<path d="M14.9891 35.9494C14.9891 35.9494 10.4877 33.5827 5.39846 24.9975C1.85611 19.0266 1.25283 13.4578 2.70689 12.6225C4.16096 11.7872 17.6961 20.1403 42.6936 23.8683C60.6683 26.5444 80.7313 28.1841 99.5877 28.3542C119.666 28.5399 139.389 27.4107 158.044 23.8683C183.243 19.073 192.199 13.8755 194.69 14.7108C197.195 15.5461 193.932 23.2496 192.122 27.1013C190.884 29.7155 185.548 39.4144 181.572 40.1105C178.71 40.621 42.6781 39.4918 42.6781 39.4918L14.9891 35.9494Z" fill="#474C4F"/>
<path d="M90.5696 44.0705V78.0089L107.229 75.7196V44.0705H90.5696ZM140.41 54.218H155.569V171.146L140.209 173.188L140.41 54.218ZM46.5301 54.1097L46.2671 172.801L60.7458 171.363V54.218L46.5301 54.1097Z" fill="#EB2901"/>
<path d="M176.05 71.0015C175.246 69.8878 172.693 70.0425 172.693 70.0425C172.693 70.0425 169.785 70.0115 164.773 69.9497C164.789 67.1808 164.711 63.592 164.232 63.0197C163.428 62.0606 132.614 62.3854 131.5 63.3445C130.866 63.8859 130.742 67.0106 130.758 69.5939C111.7 69.4083 89.0538 69.1917 69.2847 69.0679C69.2847 66.3919 69.2074 63.1589 68.7433 62.6948C67.9389 61.8904 39.3681 61.4109 38.2544 62.2153C37.4655 62.7876 37.3108 66.7167 37.2953 68.9597C27.6583 68.9751 21.4553 69.0525 21.0067 69.2381C18.7638 70.1972 20.0477 83.4539 20.0477 83.4539L176.514 84.5676C176.53 84.5831 176.854 72.1308 176.05 71.0015ZM10.6736 27.4725C9.91564 28.4315 10.2714 30.659 12.1431 34.8511C12.8856 36.5062 15.0358 40.2961 15.8247 41.2397C15.8247 41.2397 36.5838 46.499 99.2013 46.1123C161.819 45.7256 183.49 41.7965 183.49 41.7965C183.49 41.7965 189.833 32.902 188.673 32.6081C188.007 32.4379 154.935 39.4298 98.8145 38.8575C42.6939 38.2851 10.6736 27.4725 10.6736 27.4725Z" fill="#EB2901"/>
<path d="M41.9512 168.052C41.4407 168.563 40.9303 184.48 41.812 185.207C42.6782 185.934 63.6693 186.105 64.3964 185.377C65.1234 184.65 64.9842 169.336 64.5511 168.455C64.1179 167.573 42.6782 167.325 41.9512 168.052ZM136.28 169.94C135.506 171.285 135.506 185.934 136.233 186.955C136.96 187.976 158.802 187.682 159.39 186.955C159.978 186.228 159.823 170.388 159.39 169.8C158.957 169.213 136.867 168.934 136.28 169.94Z" fill="#474C4F"/>
</svg>